<svg width="158" height="154" viewBox="0 0 158 154" fill="none" xmlns="http://www.w3.org/2000/svg">
<g filter="url(#filter0_d_6_23)">
<rect x="10" y="10" width="138" height="134" rx="8" fill="white"/>
</g>
<path d="M79.1525 128.235C82.6741 128.235 85.5332 125.636 85.5332 122.425C85.5332 119.219 85.5332 116.62 85.5332 116.62C102.954 115.078 114.486 106.185 114.486 91.72V91.4835C114.486 76.7814 104.671 70.0244 85.1649 65.6391V51.8864C87.9731 52.5495 90.8812 53.4893 93.7233 54.7084C98.2972 56.6677 103.856 55.4396 106.633 51.0521C109.412 46.6673 107.911 40.5079 102.762 38.2741C97.6351 36.0524 92.0084 34.5218 85.7757 33.8634V30.3054C85.7757 28.3439 82.9211 26.75 79.3973 26.75C75.8734 26.75 73.0166 28.2642 73.0166 30.1248C73.0166 31.9928 73.0166 33.5044 73.0166 33.5044C54.2428 34.8101 43.693 44.5317 43.693 58.5214V58.7606C43.693 73.4605 53.7527 79.9852 73.5061 84.3679V98.5968C68.7672 97.8587 64.1277 96.3376 59.4057 94.0077C54.3756 91.5279 48.2134 92.4047 45.1649 96.759C42.1141 101.111 43.3461 107.294 48.4172 109.699C55.8676 113.236 64.2878 115.546 72.7691 116.385V122.313C72.7718 125.582 75.6286 128.235 79.1525 128.235ZM85.0387 86.2665C91.4221 88.0431 93.26 89.8245 93.26 93.0235V93.2627C93.26 96.7009 90.6845 98.714 85.0387 99.3096V86.2665ZM65.2848 56.9792V56.7427C65.2848 53.6608 67.6177 51.2887 73.6274 50.8156V63.6216C67.0046 61.8424 65.2848 60.0611 65.2848 56.9792Z" fill="#EDF1F7"/>
<defs>
<filter id="filter0_d_6_23" x="0" y="0" width="158" height="154" filterUnits="userSpaceOnUse" color-interpolation-filters="sRGB">
<feFlood flood-opacity="0" result="BackgroundImageFix"/>
<feColorMatrix in="SourceAlpha" type="matrix" values="0 0 0 0 0 0 0 0 0 0 0 0 0 0 0 0 0 0 127 0" result="hardAlpha"/>
<feOffset/>
<feGaussianBlur stdDeviation="5"/>
<feComposite in2="hardAlpha" operator="out"/>
<feColorMatrix type="matrix" values="0 0 0 0 0 0 0 0 0 0 0 0 0 0 0 0 0 0 0.1 0"/>
<feBlend mode="normal" in2="BackgroundImageFix" result="effect1_dropShadow_6_23"/>
<feBlend mode="normal" in="SourceGraphic" in2="effect1_dropShadow_6_23" result="shape"/>
</filter>
</defs>
</svg>
