<svg width="158" height="159" viewBox="0 0 158 159" fill="none" xmlns="http://www.w3.org/2000/svg">
<g filter="url(#filter0_d_6_3)">
<rect x="10" y="10" width="138" height="139" rx="8" fill="white"/>
</g>
<g clip-path="url(#clip0_6_3)">
<rect x="17.8114" y="17.8679" width="122.377" height="123.264" rx="8" fill="white"/>
<path d="M100.595 59.9037H57.4041C56.2157 59.9037 55.2523 58.9332 55.2523 57.7362V42.1279C55.2523 37.8023 58.746 34.2833 63.0404 34.2833H94.9585C99.2527 34.2833 102.747 37.8023 102.747 42.1279V57.7362C102.746 58.9332 101.783 59.9037 100.595 59.9037ZM59.5558 55.5687H98.4429V42.1276C98.4429 40.1925 96.8797 38.618 94.9585 38.618H63.04C61.1187 38.618 59.5555 40.1925 59.5555 42.1276V55.5687H59.5558Z" fill="#EDF1F7"/>
<path d="M135.819 57.253V119.836C135.819 122.529 133.65 124.717 130.973 124.717H27.0238C24.3471 124.717 22.178 122.529 22.178 119.836V57.253H33.571H49.526H68.3613H89.6354H108.471H124.429H135.819Z" fill="#EDF1F7"/>
<path d="M140.189 61.2208V81.4801C140.189 82.8026 139.125 83.8744 137.812 83.8744H135.819H124.429H108.471H89.6359H68.3619H49.5265H33.5713H22.178H20.1884C18.8755 83.8744 17.8114 82.8026 17.8114 81.4801V61.2208C17.8114 56.763 21.3991 53.1494 25.8247 53.1494H57.4045H100.596H132.173C136.6 53.1494 140.189 56.7645 140.189 61.2208Z" fill="#EDF1F7"/>
<path d="M135.819 83.8752H22.1924V87.7592H135.819V83.8752Z" fill="white"/>
<path d="M124.429 85.8972V95.2427C124.429 96.6267 123.315 97.7484 121.941 97.7484H110.959C109.585 97.7484 108.471 96.6265 108.471 95.2427V85.8972V78.9619C108.471 77.5778 109.585 76.4562 110.959 76.4562H121.941C123.315 76.4562 124.429 77.5781 124.429 78.9619V85.8972Z" fill="#EDF1F7"/>
<path d="M49.526 85.8972V95.2427C49.526 96.6267 48.4122 97.7484 47.0383 97.7484H36.0591C34.6849 97.7484 33.5714 96.6265 33.5714 95.2427V85.8972V78.9619C33.5714 77.5778 34.6852 76.4562 36.0591 76.4562H47.0386C48.4127 76.4562 49.5263 77.5781 49.5263 78.9619V85.8972H49.526Z" fill="#EDF1F7"/>
<path d="M124.429 83.8744V93.2198C124.429 94.6039 123.315 95.7256 121.941 95.7256H110.959C109.585 95.7256 108.471 94.6037 108.471 93.2198V83.8744V76.9391C108.471 75.555 109.585 74.4334 110.959 74.4334H121.941C123.315 74.4334 124.429 75.5553 124.429 76.9391V83.8744Z" fill="white"/>
<path d="M119.265 79.6358H113.636V90.5247H119.265V79.6358Z" fill="#EDF1F7"/>
<path d="M49.5261 83.8744V93.2198C49.5261 94.6039 48.4122 95.7256 47.0384 95.7256H36.0591C34.6849 95.7256 33.5714 94.6037 33.5714 93.2198V83.8744V76.9391C33.5714 75.555 34.6852 74.4334 36.0591 74.4334H47.0386C48.4127 74.4334 49.5263 75.5553 49.5263 76.9391V83.8744H49.5261Z" fill="white"/>
<path d="M44.3618 79.6358H38.7355V90.5247H44.3618V79.6358Z" fill="#EDF1F7"/>
</g>
<defs>
<filter id="filter0_d_6_3" x="0" y="0" width="158" height="159" filterUnits="userSpaceOnUse" color-interpolation-filters="sRGB">
<feFlood flood-opacity="0" result="BackgroundImageFix"/>
<feColorMatrix in="SourceAlpha" type="matrix" values="0 0 0 0 0 0 0 0 0 0 0 0 0 0 0 0 0 0 127 0" result="hardAlpha"/>
<feOffset/>
<feGaussianBlur stdDeviation="5"/>
<feComposite in2="hardAlpha" operator="out"/>
<feColorMatrix type="matrix" values="0 0 0 0 0 0 0 0 0 0 0 0 0 0 0 0 0 0 0.1 0"/>
<feBlend mode="normal" in2="BackgroundImageFix" result="effect1_dropShadow_6_3"/>
<feBlend mode="normal" in="SourceGraphic" in2="effect1_dropShadow_6_3" result="shape"/>
</filter>
<clipPath id="clip0_6_3">
<rect x="17.8114" y="17.8679" width="122.377" height="123.264" rx="8" fill="white"/>
</clipPath>
</defs>
</svg>
