<svg width="158" height="154" viewBox="0 0 158 154" fill="none" xmlns="http://www.w3.org/2000/svg">
<g filter="url(#filter0_d_6_26)">
<rect x="10" y="10" width="138" height="134" rx="8" fill="white"/>
<path d="M135.587 88.8447C136.604 88.7368 137.375 87.8793 137.376 86.8567L137.384 67.8791C137.384 66.8566 136.613 65.9984 135.597 65.8896L123.655 64.6125C122.858 64.5273 122.193 63.9727 121.936 63.2132C121.319 61.3898 120.58 59.6076 119.722 57.8757C119.363 57.1495 119.446 56.2768 119.961 55.6515L127.563 46.4312C128.224 45.6286 128.16 44.4529 127.416 43.7269L113.606 30.2649C112.889 29.5662 111.767 29.505 110.978 30.1216L101.57 37.4794C100.949 37.9654 100.101 38.0371 99.394 37.688C97.6025 36.8041 95.7552 36.0393 93.8619 35.3967C93.108 35.1409 92.5572 34.4815 92.4685 33.6903L91.1459 21.8904C91.0325 20.8784 90.1767 20.1132 89.1584 20.1132H69.5659C68.5475 20.1132 67.6918 20.8783 67.5783 21.8903L66.2824 33.4471C66.1923 34.2509 65.6256 34.9173 64.8554 35.1644C62.9772 35.767 61.1407 36.4906 59.3578 37.3312C58.655 37.6626 57.8228 37.5839 57.2115 37.1041L47.6202 29.576C46.8327 28.9579 45.7097 29.0172 44.9917 29.7147L31.1582 43.1534C30.4121 43.8781 30.3461 45.0537 31.0063 45.8574L38.4331 54.8984C38.9558 55.5348 39.0311 56.4245 38.6515 57.1553C37.7607 58.8707 36.9882 60.6391 36.3387 62.4492C36.072 63.1925 35.4128 63.7312 34.6274 63.8139L22.434 65.0985C21.4172 65.2056 20.6449 66.0623 20.6435 67.0848L20.6178 86.0623C20.6164 87.085 21.3868 87.944 22.4036 88.0535L34.3432 89.3396C35.1412 89.4256 35.8064 89.9817 36.0626 90.7423C36.6769 92.566 37.4134 94.3476 38.2701 96.0789C38.6298 96.8057 38.546 97.6791 38.0296 98.3043L30.4194 107.519C29.7571 108.321 29.82 109.496 30.5642 110.223L44.3613 123.697C45.0775 124.396 46.2004 124.458 46.9894 123.842L56.4053 116.492C57.027 116.006 57.8743 115.935 58.5814 116.285C60.3725 117.171 62.2184 117.937 64.1103 118.581C64.8638 118.838 65.4139 119.498 65.5019 120.289L66.8151 132.091C66.9278 133.103 67.7829 133.869 68.8013 133.87L79.0048 133.877L88.3935 133.885C89.4118 133.886 90.2682 133.122 90.3825 132.11L91.6879 120.554C91.7786 119.751 92.3453 119.085 93.1152 118.839C95.0191 118.229 96.8798 117.496 98.6852 116.642C99.3878 116.31 100.22 116.388 100.832 116.867L110.431 124.388C111.219 125.005 112.342 124.945 113.059 124.247L126.881 110.797C127.626 110.071 127.691 108.896 127.03 108.093L119.595 99.0582C119.072 98.4228 118.996 97.534 119.374 96.8032C120.262 95.0859 121.034 93.3163 121.683 91.5042C121.949 90.761 122.608 90.2222 123.393 90.1389L135.587 88.8447ZM79.0048 97.3799C67.4513 97.3799 58.0851 88.2533 58.0851 76.9953C58.0851 65.7373 67.4513 56.6107 79.0048 56.6107C90.5583 56.6107 99.9245 65.7373 99.9245 76.9953C99.9245 88.2533 90.5583 97.3799 79.0048 97.3799Z" fill="#EDF1F7"/>
</g>
<defs>
<filter id="filter0_d_6_26" x="0" y="0" width="158" height="154" filterUnits="userSpaceOnUse" color-interpolation-filters="sRGB">
<feFlood flood-opacity="0" result="BackgroundImageFix"/>
<feColorMatrix in="SourceAlpha" type="matrix" values="0 0 0 0 0 0 0 0 0 0 0 0 0 0 0 0 0 0 127 0" result="hardAlpha"/>
<feOffset/>
<feGaussianBlur stdDeviation="5"/>
<feComposite in2="hardAlpha" operator="out"/>
<feColorMatrix type="matrix" values="0 0 0 0 0 0 0 0 0 0 0 0 0 0 0 0 0 0 0.1 0"/>
<feBlend mode="normal" in2="BackgroundImageFix" result="effect1_dropShadow_6_26"/>
<feBlend mode="normal" in="SourceGraphic" in2="effect1_dropShadow_6_26" result="shape"/>
</filter>
</defs>
</svg>
